<svg xmlns="http://www.w3.org/2000/svg" width="120" height="120" viewBox="0 0 120 120" fill="none">
  <defs>
    <linearGradient id="bg" x1="20" y1="16" x2="102" y2="110" gradientUnits="userSpaceOnUse">
      <stop stop-color="#111827"/>
      <stop offset="1" stop-color="#0B1020"/>
    </linearGradient>
    <linearGradient id="accent" x1="34" y1="28" x2="92" y2="92" gradientUnits="userSpaceOnUse">
      <stop stop-color="#FF4D6D"/>
      <stop offset="1" stop-color="#EF4444"/>
    </linearGradient>
    <filter id="shadow" x="-20%" y="-20%" width="140%" height="140%" color-interpolation-filters="sRGB">
      <feDropShadow dx="0" dy="6" stdDeviation="8" flood-color="#000000" flood-opacity="0.35"/>
    </filter>
  </defs>

  <!-- Background -->
  <rect x="8" y="8" width="104" height="104" rx="26" fill="url(#bg)"/>

  <!-- Accent badge -->
  <g filter="url(#shadow)">
    <rect x="26" y="24" width="68" height="68" rx="18" fill="url(#accent)"/>
  </g>

  <!-- "List + check" mark (subscription manager) -->
  <g fill="#FFFFFF">
    <!-- list lines -->
    <rect x="40" y="44" width="30" height="6" rx="3" opacity="0.95"/>
    <rect x="40" y="56" width="36" height="6" rx="3" opacity="0.95"/>
    <rect x="40" y="68" width="24" height="6" rx="3" opacity="0.95"/>

    <!-- check -->
    <path d="M78.7 59.6c.8-.8 2.1-.8 2.9 0 .8.8.8 2.1 0 2.9l-10.2 10.2c-.8.8-2.1.8-2.9 0l-5.1-5.1c-.8-.8-.8-2.1 0-2.9.8-.8 2.1-.8 2.9 0l3.6 3.6 8.8-8.7z" opacity="0.98"/>
  </g>

  <!-- Subtle border -->
  <rect x="8.75" y="8.75" width="102.5" height="102.5" rx="25.25" stroke="#FFFFFF" stroke-opacity="0.08" stroke-width="1.5"/>
</svg>

